<svg width="14" height="14" viewBox="0 0 14 14" fill="none" xmlns="http://www.w3.org/2000/svg">
<g clip-path="url(#clip0_1_2189)">
<path d="M5.54167 8.75014H2.04167C1.88067 8.75014 1.75 8.61948 1.75 8.45848C1.75 8.29748 1.88067 8.16681 2.04167 8.16681H5.54167C5.70267 8.16681 5.83333 8.29748 5.83333 8.45848C5.83333 8.61948 5.70267 8.75014 5.54167 8.75014Z" fill="white"/>
<path d="M4.95833 10.5001H2.04167C1.88067 10.5001 1.75 10.3695 1.75 10.2085C1.75 10.0475 1.88067 9.91681 2.04167 9.91681H4.95833C5.11933 9.91681 5.25 10.0475 5.25 10.2085C5.25 10.3695 5.11933 10.5001 4.95833 10.5001Z" fill="white"/>
<path d="M4.95832 4.08333C4.31491 4.08333 3.79166 3.56008 3.79166 2.91667C3.79166 2.27325 4.31491 1.75 4.95832 1.75C5.60174 1.75 6.12499 2.27325 6.12499 2.91667C6.12499 3.56008 5.60174 4.08333 4.95832 4.08333ZM4.95832 2.33333C4.63691 2.33333 4.37499 2.59525 4.37499 2.91667C4.37499 3.23808 4.63691 3.5 4.95832 3.5C5.27974 3.5 5.54166 3.23808 5.54166 2.91667C5.54166 2.59525 5.27974 2.33333 4.95832 2.33333Z" fill="white"/>
<path d="M7 7.00002C6.839 7.00002 6.70833 6.86935 6.70833 6.70835V6.12502C6.70833 5.6426 6.31575 5.25002 5.83333 5.25002H4.08333C3.60092 5.25002 3.20833 5.6426 3.20833 6.12502V6.70835C3.20833 6.86935 3.07767 7.00002 2.91667 7.00002C2.75567 7.00002 2.625 6.86935 2.625 6.70835V6.12502C2.625 5.32119 3.2795 4.66669 4.08333 4.66669H5.83333C6.63717 4.66669 7.29167 5.32119 7.29167 6.12502V6.70835C7.29167 6.86935 7.161 7.00002 7 7.00002Z" fill="white"/>
<path d="M5.54167 12.25H1.45833C0.6545 12.25 0 11.5955 0 10.7917V1.45833C0 0.6545 0.6545 0 1.45833 0H8.45833C9.26217 0 9.91667 0.6545 9.91667 1.45833V4.99333C9.91667 5.15433 9.786 5.285 9.625 5.285C9.464 5.285 9.33333 5.15433 9.33333 4.99333V1.45833C9.33333 0.975917 8.94075 0.583333 8.45833 0.583333H1.45833C0.975917 0.583333 0.583333 0.975917 0.583333 1.45833V10.7917C0.583333 11.2741 0.975917 11.6667 1.45833 11.6667H5.54167C5.70267 11.6667 5.83333 11.7973 5.83333 11.9583C5.83333 12.1193 5.70267 12.25 5.54167 12.25Z" fill="white"/>
<path d="M10.2083 14.0001C8.11766 14.0001 6.41666 12.2991 6.41666 10.2085C6.41666 8.11781 8.11766 6.41681 10.2083 6.41681C12.299 6.41681 14 8.11781 14 10.2085C14 12.2991 12.299 14.0001 10.2083 14.0001ZM10.2083 7.00014C8.43907 7.00014 6.99999 8.43923 6.99999 10.2085C6.99999 11.9777 8.43907 13.4168 10.2083 13.4168C11.9776 13.4168 13.4167 11.9777 13.4167 10.2085C13.4167 8.43923 11.9776 7.00014 10.2083 7.00014Z" fill="white"/>
<path d="M9.62507 11.6666C9.54807 11.6666 9.47341 11.6357 9.41857 11.5814L8.25191 10.4148C8.13816 10.301 8.13816 10.1161 8.25191 10.0023C8.36566 9.88859 8.55057 9.88859 8.66432 10.0023L9.61049 10.9485L11.4468 8.84968C11.553 8.72776 11.7373 8.71551 11.8587 8.82226C11.98 8.92843 11.9922 9.11276 11.8861 9.23409L9.84441 11.5674C9.79132 11.6281 9.71491 11.6643 9.63441 11.6666C9.63149 11.6666 9.62799 11.6666 9.62507 11.6666Z" fill="white"/>
</g>
<defs>
<clipPath id="clip0_1_2189">
<rect width="14" height="14" fill="white"/>
</clipPath>
</defs>
</svg>
