<svg width="14" height="14" viewBox="0 0 14 14" fill="none" xmlns="http://www.w3.org/2000/svg">
<path d="M5.54172 8.75002H2.0417C1.8807 8.75002 1.75003 8.61936 1.75003 8.45836C1.75003 8.29735 1.8807 8.16669 2.0417 8.16669H5.54172C5.70272 8.16669 5.83339 8.29735 5.83339 8.45836C5.83339 8.61936 5.70272 8.75002 5.54172 8.75002Z" fill="white"/>
<path d="M4.95838 10.5001H2.0417C1.8807 10.5001 1.75003 10.3694 1.75003 10.2084C1.75003 10.0474 1.8807 9.91675 2.0417 9.91675H4.95838C5.11938 9.91675 5.25005 10.0474 5.25005 10.2084C5.25005 10.3694 5.11938 10.5001 4.95838 10.5001Z" fill="white"/>
<path d="M4.95836 4.08328C4.31494 4.08328 3.79169 3.56003 3.79169 2.91661C3.79169 2.27319 4.31494 1.74994 4.95836 1.74994C5.60178 1.74994 6.12503 2.27319 6.12503 2.91661C6.12503 3.56003 5.60178 4.08328 4.95836 4.08328ZM4.95836 2.33328C4.63694 2.33328 4.37502 2.59519 4.37502 2.91661C4.37502 3.23803 4.63694 3.49995 4.95836 3.49995C5.27978 3.49995 5.5417 3.23803 5.5417 2.91661C5.5417 2.59519 5.27978 2.33328 4.95836 2.33328Z" fill="white"/>
<path d="M7.00008 7.00003C6.83908 7.00003 6.70842 6.86937 6.70842 6.70836V6.12503C6.70842 5.64261 6.31583 5.25002 5.83341 5.25002H4.0834C3.60098 5.25002 3.2084 5.64261 3.2084 6.12503V6.70836C3.2084 6.86937 3.07773 7.00003 2.91673 7.00003C2.75573 7.00003 2.62506 6.86937 2.62506 6.70836V6.12503C2.62506 5.32119 3.27956 4.66669 4.0834 4.66669H5.83341C6.63725 4.66669 7.29175 5.32119 7.29175 6.12503V6.70836C7.29175 6.86937 7.16108 7.00003 7.00008 7.00003Z" fill="white"/>
<path d="M5.5417 12.2501H1.45834C0.654503 12.2501 0 11.5956 0 10.7917V1.45834C0 0.654503 0.654503 0 1.45834 0H8.45838C9.26222 0 9.91672 0.654503 9.91672 1.45834V4.99336C9.91672 5.15436 9.78605 5.28503 9.62505 5.28503C9.46405 5.28503 9.33338 5.15436 9.33338 4.99336V1.45834C9.33338 0.975922 8.9408 0.583336 8.45838 0.583336H1.45834C0.975922 0.583336 0.583336 0.975922 0.583336 1.45834V10.7917C0.583336 11.2741 0.975922 11.6667 1.45834 11.6667H5.5417C5.7027 11.6667 5.83336 11.7974 5.83336 11.9584C5.83336 12.1194 5.7027 12.2501 5.5417 12.2501Z" fill="white"/>
<path d="M10.2084 14.0001C8.1177 14.0001 6.41669 12.2991 6.41669 10.2084C6.41669 8.1177 8.1177 6.41669 10.2084 6.41669C12.2991 6.41669 14.0001 8.1177 14.0001 10.2084C14.0001 12.2991 12.2991 14.0001 10.2084 14.0001ZM10.2084 7.00002C8.43911 7.00002 7.00002 8.43911 7.00002 10.2084C7.00002 11.9776 8.43911 13.4167 10.2084 13.4167C11.9776 13.4167 13.4167 11.9776 13.4167 10.2084C13.4167 8.43911 11.9776 7.00002 10.2084 7.00002Z" fill="white"/>
<path d="M8.98416 9.13336L11.4786 11.4869" stroke="white" stroke-width="0.839999" stroke-linecap="round"/>
<path d="M11.3088 9.15045L8.96003 11.47" stroke="white" stroke-width="0.839999" stroke-linecap="round"/>
</svg>
