<svg width="12" height="12" viewBox="0 0 12 12" fill="none" xmlns="http://www.w3.org/2000/svg">
<g clip-path="url(#clip0_1_2303)">
<path d="M2.72559 4.54274H5.99629C6.09677 4.54274 6.17799 4.46134 6.17799 4.36103V1.09034C6.17799 0.990034 6.09677 0.90863 5.99629 0.90863H2.72559C2.62511 0.90863 2.54388 0.990034 2.54388 1.09034V4.36103C2.54388 4.46134 2.62511 4.54274 2.72559 4.54274ZM3.99753 2.36227C3.99753 2.16185 4.16052 1.99886 4.36094 1.99886C4.56136 1.99886 4.72435 2.16185 4.72435 2.36227C4.72435 2.5627 4.56136 2.72569 4.36094 2.72569C4.16052 2.72569 3.99753 2.5627 3.99753 2.36227ZM4.36094 3.0891C4.62877 3.0891 4.86063 3.23628 4.98673 3.45251H3.73533C3.86125 3.23628 4.09311 3.0891 4.36094 3.0891ZM3.63412 3.81592H5.08776V4.17933H3.63412V3.81592ZM2.9073 1.27204H5.81458V4.17933H5.45117V3.81592C5.45117 3.40526 5.22295 3.0473 4.88661 2.86142C5.01054 2.73095 5.08776 2.55579 5.08776 2.36227C5.08776 1.96143 4.76178 1.63545 4.36094 1.63545C3.9601 1.63545 3.63412 1.96143 3.63412 2.36227C3.63412 2.55579 3.71134 2.73095 3.83527 2.86142C3.49893 3.0473 3.27071 3.40526 3.27071 3.81592V4.17933H2.9073V1.27204Z" fill="white"/>
<path d="M1.63535 8.90363H6.9048V9.26704H1.63535V8.90363Z" fill="white"/>
<path d="M1.27194 9.63043H7.26822V9.99384H1.27194V9.63043Z" fill="white"/>
<path d="M11.084 5.81457C11.084 5.74571 11.0451 5.68283 10.9835 5.65194L8.90356 4.61204V1.09023C8.90356 0.989928 8.82233 0.908524 8.72185 0.908524H8.17673V0.363407C8.17673 0.263106 8.09551 0.181702 7.99503 0.181702H0.72681C0.626327 0.181702 0.545105 0.263106 0.545105 0.363407V10.5389C0.545105 10.6394 0.626327 10.7206 0.72681 10.7206H1.27193V11.2657C1.27193 11.3662 1.35315 11.4474 1.45363 11.4474H8.72185C8.82233 11.4474 8.90356 11.3662 8.90356 11.2657V9.90858C10.2689 8.98987 11.084 7.46137 11.084 5.81457ZM8.54015 1.27193V4.61204L8.17673 4.79375V1.27193H8.54015ZM0.908516 0.545113H7.81332V4.97546L7.44991 5.15716V5.08775C7.44991 4.98745 7.36869 4.90604 7.26821 4.90604H1.45363C1.35315 4.90604 1.27193 4.98745 1.27193 5.08775V7.63163C1.27193 7.73211 1.35315 7.81333 1.45363 7.81333H6.78287C6.83757 7.93689 6.8968 8.05827 6.96131 8.17674H1.27193V8.54015H7.1819C7.36506 8.81653 7.57565 9.07528 7.81332 9.31149V10.3572H0.908516V0.545113ZM6.63987 7.44992H1.63534V5.26945H7.0865V5.33887L6.46016 5.65213C6.39857 5.68284 6.35968 5.74571 6.35968 5.81457C6.35968 6.38058 6.45798 6.9317 6.63987 7.44992ZM1.63534 11.084V10.7206H7.99503C8.09551 10.7206 8.17673 10.6394 8.17673 10.5389V9.63693C8.29339 9.73196 8.41386 9.82336 8.54015 9.9084V11.084H1.63534ZM8.72185 9.5935C7.50025 8.76202 6.76016 7.40068 6.72454 5.92614L8.72185 4.92748L10.7192 5.92614C10.6835 7.40068 9.94346 8.76202 8.72185 9.5935Z" fill="white"/>
<path d="M8.72186 5.81464C8.02066 5.81464 7.44992 6.38537 7.44992 7.08657C7.44992 7.78778 8.02066 8.35851 8.72186 8.35851C9.42306 8.35851 9.9938 7.78778 9.9938 7.08657C9.9938 6.38537 9.42306 5.81464 8.72186 5.81464ZM8.72186 7.9951C8.2209 7.9951 7.81333 7.58754 7.81333 7.08657C7.81333 6.58561 8.2209 6.17805 8.72186 6.17805C9.22282 6.17805 9.63039 6.58561 9.63039 7.08657C9.63039 7.58754 9.22282 7.9951 8.72186 7.9951Z" fill="white"/>
<path d="M8.34141 7.10926L8.26276 7.18791L8.5965 7.52166C8.60693 7.53209 8.62108 7.53794 8.63583 7.53794C8.65058 7.53794 8.66472 7.53209 8.67516 7.52166L9.34265 6.85417L9.264 6.77551L8.63583 7.40368L8.34141 7.10926Z" fill="white"/>
</g>
<defs>
<clipPath id="clip0_1_2303">
<rect width="11.6292" height="11.6292" rx="0.804191" fill="white"/>
</clipPath>
</defs>
</svg>
