<svg width="12" height="12" viewBox="0 0 12 12" fill="none" xmlns="http://www.w3.org/2000/svg">
<path d="M5.75513 6.03261C5.53613 6.23661 3.78094 7.93948 3.78094 7.93948L4.24951 8.40148C4.24951 8.40148 5.80894 6.96223 6.04313 6.74455C6.10107 6.69092 6.19913 6.58873 6.38044 6.58873H11.6989V5.85223H6.19557C6.03469 5.85242 5.88226 5.91542 5.75513 6.03242V6.03261Z" fill="white"/>
<path d="M8.90604 2.02931C9.52966 2.02931 9.86997 1.59749 9.86997 1.06537C9.86994 0.874774 9.81339 0.688469 9.70748 0.530009C9.60156 0.37155 9.45104 0.248053 9.27495 0.175132C9.09885 0.102212 8.90509 0.0831419 8.71816 0.120334C8.53123 0.157527 8.35952 0.249311 8.22475 0.384083C8.08998 0.518854 7.99819 0.690561 7.961 0.877493C7.92381 1.06442 7.94288 1.25819 8.0158 1.43428C8.08872 1.61038 8.21222 1.7609 8.37068 1.86681C8.52914 1.97272 8.71544 2.02927 8.90604 2.02931Z" fill="white"/>
<path d="M7.47697 3.6857H7.80022L7.32659 5.38726H10.486L10.012 3.6857H10.3352L10.8268 5.38726H11.662L10.9907 3.12939C10.902 2.81757 10.5077 2.2652 9.82503 2.2652H7.98715C7.30484 2.2652 6.9109 2.81757 6.82147 3.12939L6.15115 5.38726H6.98628L7.47697 3.6857Z" fill="white"/>
<path d="M4.74433 5.29799L3.89589 3.71605C3.89589 3.71605 3.84602 3.64068 3.75358 3.68549C3.67052 3.72561 3.70802 3.81918 3.70802 3.81918L3.98946 4.35636L4.16458 4.69105L3.96264 4.60011C3.60489 4.43886 3.40764 4.37005 3.32852 4.33461C3.31446 4.32805 3.24508 4.28999 3.21208 4.21743C3.11833 4.0078 2.71802 2.99455 2.62821 2.77049C2.55227 2.58093 2.36496 2.31168 1.98002 2.21643C1.54183 2.10805 1.10008 2.38443 0.995831 2.82411L0.397893 5.3443C0.344643 5.54755 0.253143 6.0973 0.253143 6.32905L0.257081 11.2517C0.260081 11.667 0.559893 12.0019 0.974831 12C1.38921 11.9987 1.67289 11.661 1.67158 11.2462L1.67064 7.07586L2.30833 4.3843C2.38277 4.56636 2.47502 4.78818 2.50521 4.84143C2.57702 4.96705 2.64789 5.05349 2.79264 5.12155C2.79264 5.12155 3.62721 5.46693 3.95027 5.6143C4.04253 5.64956 4.14366 5.65435 4.23885 5.62796C4.33403 5.60158 4.41826 5.54541 4.47921 5.46768L4.52383 5.37524L4.53921 5.40468C4.53921 5.40468 4.63427 5.57211 4.77471 5.5798C4.81502 5.45211 4.74452 5.29799 4.74452 5.29799H4.74433Z" fill="white"/>
<path d="M3.45434 1.05719C3.45434 1.18378 3.4294 1.30914 3.38096 1.42611C3.33251 1.54307 3.2615 1.64934 3.17198 1.73886C3.08246 1.82838 2.97619 1.89939 2.85923 1.94784C2.74226 1.99628 2.61691 2.02122 2.49031 2.02122C2.36371 2.02122 2.23835 1.99628 2.12139 1.94784C2.00443 1.89939 1.89815 1.82838 1.80863 1.73886C1.71912 1.64934 1.64811 1.54307 1.59966 1.42611C1.55121 1.30914 1.52628 1.18378 1.52628 1.05719C1.52981 0.803838 1.63293 0.562063 1.81334 0.384155C1.99374 0.206247 2.23693 0.106506 2.49031 0.106506C2.74368 0.106506 2.98687 0.206247 3.16728 0.384155C3.34768 0.562063 3.4508 0.803838 3.45434 1.05719Z" fill="white"/>
<path d="M3.88856 7.34753L5.76694 5.59928L5.52281 5.33734L3.64444 7.08578L3.88856 7.34753Z" fill="white"/>
</svg>
