<svg width="10" height="10" viewBox="0 0 10 10" fill="none" xmlns="http://www.w3.org/2000/svg">
<g clip-path="url(#clip0_1_2229)">
<path d="M2.40984 0.0327759H0.0819672C0.0327869 0.0327759 0 0.0655628 0 0.114743V2.45901C0 2.49179 0.0327869 2.54097 0.0819672 2.54097H2.42623C2.47541 2.54097 2.5082 2.50819 2.5082 2.45901V0.114743C2.4918 0.0655628 2.45902 0.0327759 2.40984 0.0327759ZM0.622951 1.90163V0.67212H1.85246V1.90163H0.622951Z" fill="white"/>
<path d="M1.459 1.00006H1.04916C0.99998 1.00006 0.967194 1.03285 0.967194 1.08203V1.49186C0.967194 1.54104 0.99998 1.57383 1.04916 1.57383H1.459C1.50818 1.57383 1.54096 1.54104 1.54096 1.49186V1.08203C1.52457 1.03285 1.49178 1.00006 1.459 1.00006Z" fill="white"/>
<path d="M9.88524 0.0328369H7.54098C7.4918 0.0328369 7.45901 0.0656238 7.45901 0.114804V2.45907C7.45901 2.50825 7.4918 2.54103 7.54098 2.54103H9.88524C9.93442 2.54103 9.96721 2.50825 9.96721 2.45907V0.114804C9.95082 0.0656238 9.91803 0.0328369 9.88524 0.0328369ZM8.08197 1.90169V0.672181H9.31147V1.90169H8.08197Z" fill="white"/>
<path d="M8.91804 1.00006H8.50821C8.45903 1.00006 8.42624 1.03285 8.42624 1.08203V1.49186C8.42624 1.54104 8.45903 1.57383 8.50821 1.57383H8.91804C8.96722 1.57383 9.00001 1.54104 9.00001 1.49186V1.08203C8.98362 1.03285 8.95083 1.00006 8.91804 1.00006Z" fill="white"/>
<path d="M2.40984 7.45905H0.0819672C0.0327869 7.45905 0 7.49183 0 7.54101V9.88527C0 9.93446 0.0327869 9.96724 0.0819672 9.96724H2.42623C2.47541 9.96724 2.5082 9.93446 2.5082 9.88527V7.54101C2.4918 7.50823 2.45902 7.45905 2.40984 7.45905ZM0.622951 9.3279V8.09839H1.85246V9.3279H0.622951Z" fill="white"/>
<path d="M1.459 8.42627H1.04916C0.99998 8.42627 0.967194 8.45906 0.967194 8.50824V8.91807C0.967194 8.96725 0.99998 9.00004 1.04916 9.00004H1.459C1.50818 9.00004 1.54096 8.96725 1.54096 8.91807V8.50824C1.52457 8.45906 1.49178 8.42627 1.459 8.42627Z" fill="white"/>
<path d="M9.88524 7.45905H7.54098C7.4918 7.45905 7.45901 7.49183 7.45901 7.54101V9.88527C7.45901 9.93446 7.4918 9.96724 7.54098 9.96724H9.88524C9.93442 9.96724 9.96721 9.93446 9.96721 9.88527V7.54101C9.95082 7.50823 9.91803 7.45905 9.88524 7.45905ZM8.08197 9.3279V8.09839H9.31147V9.3279H8.08197Z" fill="white"/>
<path d="M8.91804 8.42627H8.50821C8.45903 8.42627 8.42624 8.45906 8.42624 8.50824V8.91807C8.42624 8.96725 8.45903 9.00004 8.50821 9.00004H8.91804C8.96722 9.00004 9.00001 8.96725 9.00001 8.91807V8.50824C8.98362 8.45906 8.95083 8.42627 8.91804 8.42627Z" fill="white"/>
<path d="M3.22952 6.34436H0.0491943V6.80338H3.22952V6.34436Z" fill="white"/>
<path d="M5.57376 9.98373H4.93442V6.80341H4.45901V9.98373H3.80327V6.80341H3.2131V9.98373H6.81966H6.18032V6.80341H5.57376V9.98373Z" fill="white"/>
<path d="M6.16392 6.14764H5.57376V6.36076H6.16392V6.14764Z" fill="white"/>
<path d="M4.93442 6.14764H4.45901V6.36076H4.93442V6.14764Z" fill="white"/>
<path d="M10 5.83612H6.18033V6.1312H10V5.83612Z" fill="white"/>
<path d="M4.62296 0.606628H3.80328V1.27876H4.62296V0.606628Z" fill="white"/>
<path d="M4.45902 5.83612H3.80328V6.1312H4.45902V5.83612Z" fill="white"/>
<path d="M4.62295 8.81976H3.63934V9.52468H4.62295V8.81976Z" fill="white"/>
<path d="M0.45903 5.83612H0.0491943V6.1312H0.45903V5.83612Z" fill="white"/>
<path d="M3.2295 5.83612H1.11475V6.1312H3.2295V5.83612Z" fill="white"/>
<path d="M5.59016 5.83612H4.93442V6.1312H5.59016V5.83612Z" fill="white"/>
<path d="M5.75411 7.42633H4.77051V7.72141H5.75411V7.42633Z" fill="white"/>
<path d="M5.75411 9.00006H4.77051V9.11481H5.75411V9.00006Z" fill="white"/>
<path d="M5.75411 8.47552H4.77051V8.59028H5.75411V8.47552Z" fill="white"/>
<path d="M5.75411 7.95087H4.77051V8.06562H5.75411V7.95087Z" fill="white"/>
<path d="M5.59016 6.34436H4.93442V6.80338H5.59016V6.34436Z" fill="white"/>
<path d="M4.21311 6.34436H3.55737V6.80338H4.21311V6.34436Z" fill="white"/>
<path d="M6.9672 6.34436H6.77048V6.80338H6.9672V6.34436Z" fill="white"/>
<path d="M6.57377 6.34436H6.37704V6.80338H6.57377V6.34436Z" fill="white"/>
<path d="M10 6.34436H7.62296V6.80338H10V6.34436Z" fill="white"/>
<path d="M2.75411 3.164H0.0491943V3.34433H2.75411V3.164Z" fill="white"/>
<path d="M10 3.164H7.62296V3.34433H10V3.164Z" fill="white"/>
<path d="M7.45903 3.164H7.24591V3.34433H7.45903V3.164Z" fill="white"/>
<path d="M7.06559 3.164H6.85248V3.34433H7.06559V3.164Z" fill="white"/>
<path d="M6.67213 3.164H6.45901V3.34433H6.67213V3.164Z" fill="white"/>
<path d="M5.59016 3.60669H4.93442V4.27882H5.59016V3.60669Z" fill="white"/>
<path d="M5.75409 2.24603H4.93442V2.91816H5.75409V2.24603Z" fill="white"/>
<path d="M2.09837 3.60669H1.88525V4.27882H2.09837V3.60669Z" fill="white"/>
<path d="M1.67213 3.60669H1.45901V4.27882H1.67213V3.60669Z" fill="white"/>
<path d="M1.24589 3.60669H1.03278V4.27882H1.24589V3.60669Z" fill="white"/>
<path d="M10 3.60669H7.95084V4.27882H10V3.60669Z" fill="white"/>
<path d="M0.803293 3.60669H0.0491943V4.27882H0.803293V3.60669Z" fill="white"/>
<path d="M3.22949 3.60669H2.77048V4.27882H3.22949V3.60669Z" fill="white"/>
<path d="M6.95082 3.60669H6.18033V4.27882H6.95082V3.60669Z" fill="white"/>
<path d="M7.7377 3.60669H7.39343V4.27882H7.7377V3.60669Z" fill="white"/>
<path d="M3.80327 1.31158H3.2131V3.60667H3.80327V1.31158Z" fill="white"/>
<path d="M3.80327 0.0164795H3.2131V0.59025H3.80327V0.0164795Z" fill="white"/>
<path d="M4.93442 0.0164795H4.45901V2.19681H4.93442V0.0164795Z" fill="white"/>
<path d="M4.93442 3.04926H4.45901V3.60663H4.93442V3.04926Z" fill="white"/>
<path d="M6.16392 0.0164795H5.57376V0.508283H6.16392V0.0164795Z" fill="white"/>
<path d="M6.16392 1.11487H5.57376V3.62306H6.16392V1.11487Z" fill="white"/>
<path d="M6.77048 1.11487H6.49179V2.65585H6.77048V1.11487Z" fill="white"/>
<path d="M6.77048 0.0984497H6.49179V0.819761H6.77048V0.0984497Z" fill="white"/>
<path d="M9.90166 5.09833H0.131167C0.0819867 5.09833 0.0328064 5.04915 0.0328064 4.99997C0.0328064 4.95079 0.0819867 4.90161 0.131167 4.90161H9.90166C9.95084 4.90161 10 4.95079 10 4.99997C10 5.04915 9.95084 5.09833 9.90166 5.09833Z" fill="white"/>
<path d="M9.90165 4.90161H0.131162C0.0983747 4.90161 0.0655878 4.918 0.0491943 4.95079C0.0655878 4.98358 0.0983747 4.99997 0.131162 4.99997H9.90165C9.93444 4.99997 9.96723 4.98358 9.98362 4.95079C9.98362 4.9344 9.95084 4.90161 9.90165 4.90161Z" fill="white"/>
<path d="M6.77045 8.40979H6.49176V9.95077H6.77045V8.40979Z" fill="white"/>
<path d="M6.77048 7.40985H6.49179V8.13116H6.77048V7.40985Z" fill="white"/>
</g>
<defs>
<clipPath id="clip0_1_2229">
<rect width="10" height="10" fill="white"/>
</clipPath>
</defs>
</svg>
