<svg width="48" height="48" viewBox="0 0 48 48" fill="none" xmlns="http://www.w3.org/2000/svg">
<path d="M38.4 7.2H36V2.4C36 1.64156 35.6416 0.927187 35.0328 0.474375C34.6136 0.162375 34.1104 0 33.6 0C33.3688 0 33.1368 0.0335625 32.9104 0.101625L8.91039 7.30163C7.89517 7.60556 7.20001 8.53997 7.20001 9.6V45.6C7.20001 46.9256 8.27439 48 9.60001 48H38.4C39.7256 48 40.8 46.9256 40.8 45.6V9.6C40.8 8.27438 39.7256 7.2 38.4 7.2ZM33.6 2.4V7.2H17.6L33.6 2.4ZM38.4 45.6H9.60001V9.6H38.4V45.6Z" fill="url(#paint0_linear_1_3492)"/>
<path d="M24 15.6001C17.3728 15.6001 12 20.9729 12 27.6001C12 34.2273 17.3728 39.6001 24 39.6001C30.6272 39.6001 36 34.2273 36 27.6001C36 20.9729 30.6272 15.6001 24 15.6001ZM24 18.0601C24.5296 18.4769 25.4264 20.1345 25.9608 22.8793C25.3192 22.8369 24.672 22.8001 24 22.8001C23.328 22.8001 22.6808 22.8369 22.0392 22.8793C22.5736 20.1353 23.4704 18.4769 24 18.0601ZM20.8712 18.5681C20.2976 19.8113 19.8368 21.3593 19.5496 23.1505C17.7584 23.4377 16.2104 23.8986 14.9672 24.4721C15.9304 21.7041 18.104 19.5305 20.8712 18.5681ZM14.46 27.6001C14.8768 27.0705 16.5352 26.1737 19.2792 25.6393C19.2368 26.2809 19.2 26.9281 19.2 27.6001C19.2 28.2721 19.2368 28.9193 19.2792 29.5609C16.5352 29.0265 14.8768 28.1297 14.46 27.6001ZM14.968 30.7289C16.2112 31.3025 17.7592 31.7633 19.5504 32.0505C19.8376 33.8417 20.2985 35.3897 20.872 36.6329C18.104 35.6697 15.9304 33.4961 14.968 30.7289ZM24 37.1401C23.4704 36.7233 22.5736 35.0657 22.0392 32.3209C22.6808 32.3633 23.328 32.4001 24 32.4001C24.672 32.4001 25.3192 32.3633 25.9608 32.3209C25.4264 35.0649 24.5296 36.7233 24 37.1401ZM26.2968 29.8969C25.5768 29.9585 24.8208 30.0001 24 30.0001C23.1792 30.0001 22.4232 29.9585 21.7032 29.8969C21.6416 29.1769 21.6 28.4209 21.6 27.6001C21.6 26.7793 21.6416 26.0233 21.7032 25.3033C22.4232 25.2417 23.1792 25.2001 24 25.2001C24.8208 25.2001 25.5768 25.2417 26.2968 25.3033C26.3584 26.0233 26.4 26.7793 26.4 27.6001C26.4 28.4209 26.3584 29.1769 26.2968 29.8969ZM33.032 24.4713C31.7887 23.8977 30.2408 23.4368 28.4496 23.1497C28.1624 21.3585 27.7015 19.8105 27.128 18.5673C29.896 19.5305 32.0696 21.7041 33.032 24.4713ZM27.1288 36.6321C27.7024 35.3888 28.1632 33.8408 28.4504 32.0497C30.2416 31.7625 31.7896 31.3016 33.0328 30.7281C32.0696 33.4961 29.896 35.6697 27.1288 36.6321ZM28.7208 29.5609C28.7632 28.9193 28.8 28.2721 28.8 27.6001C28.8 26.9281 28.7632 26.2809 28.7208 25.6393C31.4648 26.1737 33.1232 27.0705 33.54 27.6001C33.1232 28.1297 31.4648 29.0265 28.7208 29.5609Z" fill="url(#paint1_linear_1_3492)"/>
<defs>
<linearGradient id="paint0_linear_1_3492" x1="24" y1="0" x2="24" y2="48" gradientUnits="userSpaceOnUse">
<stop stop-color="#0066FF"/>
<stop offset="1" stop-color="#002863"/>
</linearGradient>
<linearGradient id="paint1_linear_1_3492" x1="24" y1="15.6001" x2="24" y2="39.6001" gradientUnits="userSpaceOnUse">
<stop stop-color="#0066FF"/>
<stop offset="1" stop-color="#002863"/>
</linearGradient>
</defs>
</svg>
