<svg width="46" height="28" viewBox="0 0 46 28" fill="none" xmlns="http://www.w3.org/2000/svg">
<path d="M43.7573 0.225098H2.17985C1.4675 0.225098 0.888885 0.767839 0.888885 1.43888V26.0838C0.888885 26.7547 1.4675 27.2977 2.17985 27.2977H43.7573C44.4702 27.2977 45.0483 26.755 45.0483 26.0838V1.43888C45.0483 0.767941 44.4702 0.225098 43.7573 0.225098ZM42.4664 24.8699H3.4707V2.65277H42.4661V24.8699H42.4664Z" fill="url(#paint0_linear_1_2945)"/>
<path d="M6.31977 13.3963H11.6451C12.3579 13.3963 12.936 12.8522 12.936 12.1824V5.85805C12.936 5.18732 12.3581 4.64417 11.6451 4.64417H6.31977C5.60688 4.64417 5.02881 5.18721 5.02881 5.85805V12.1824C5.02881 12.8522 5.60677 13.3963 6.31977 13.3963ZM7.61073 7.07194H10.3541V10.9686H7.61073V7.07194Z" fill="url(#paint1_linear_1_2945)"/>
<path d="M18.584 10.9104H37.4641C38.1768 10.9104 38.755 10.3664 38.755 9.69656C38.755 9.02561 38.1768 8.48267 37.4641 8.48267H18.584C17.8711 8.48267 17.293 9.02551 17.293 9.69656C17.293 10.3664 17.871 10.9104 18.584 10.9104Z" fill="url(#paint2_linear_1_2945)"/>
<path d="M18.584 15.5976H37.4641C38.1768 15.5976 38.755 15.0548 38.755 14.3837C38.755 13.7139 38.1768 13.1698 37.4641 13.1698H18.584C17.8711 13.1698 17.293 13.7139 17.293 14.3837C17.293 15.0546 17.871 15.5976 18.584 15.5976Z" fill="url(#paint3_linear_1_2945)"/>
<path d="M18.584 20.2861H29.0728C29.7857 20.2861 30.3637 19.7418 30.3637 19.0722C30.3637 18.4012 29.7858 17.8583 29.0728 17.8583H18.584C17.8711 17.8583 17.293 18.401 17.293 19.0722C17.293 19.7418 17.871 20.2861 18.584 20.2861Z" fill="url(#paint4_linear_1_2945)"/>
<defs>
<linearGradient id="paint0_linear_1_2945" x1="-5.49207" y1="-3" x2="43.7018" y2="30.2433" gradientUnits="userSpaceOnUse">
<stop offset="0.243353" stop-color="#2692F5"/>
<stop offset="1" stop-color="#2333C5"/>
</linearGradient>
<linearGradient id="paint1_linear_1_2945" x1="3.88623" y1="3.60155" x2="15.1407" y2="7.81401" gradientUnits="userSpaceOnUse">
<stop offset="0.243353" stop-color="#2692F5"/>
<stop offset="1" stop-color="#2333C5"/>
</linearGradient>
<linearGradient id="paint2_linear_1_2945" x1="14.1918" y1="8.19345" x2="16.6081" y2="17.0431" gradientUnits="userSpaceOnUse">
<stop offset="0.243353" stop-color="#2692F5"/>
<stop offset="1" stop-color="#2333C5"/>
</linearGradient>
<linearGradient id="paint3_linear_1_2945" x1="14.1918" y1="12.8806" x2="16.6081" y2="21.7302" gradientUnits="userSpaceOnUse">
<stop offset="0.243353" stop-color="#2692F5"/>
<stop offset="1" stop-color="#2333C5"/>
</linearGradient>
<linearGradient id="paint4_linear_1_2945" x1="15.4043" y1="17.5691" x2="18.9542" y2="25.4869" gradientUnits="userSpaceOnUse">
<stop offset="0.243353" stop-color="#2692F5"/>
<stop offset="1" stop-color="#2333C5"/>
</linearGradient>
</defs>
</svg>
