<svg width="65" height="69" viewBox="0 0 65 69" fill="none" xmlns="http://www.w3.org/2000/svg">
<path d="M13.4932 26.4887H33.285C33.893 26.4887 34.3845 25.9961 34.3845 25.3891V5.59735C34.3845 4.9904 33.893 4.4978 33.285 4.4978H13.4932C12.8851 4.4978 12.3936 4.9904 12.3936 5.59735V25.3891C12.3936 25.9961 12.8851 26.4887 13.4932 26.4887ZM21.19 13.2942C21.19 12.0814 22.1763 11.0951 23.3891 11.0951C24.6019 11.0951 25.5881 12.0814 25.5881 13.2942C25.5881 14.507 24.6019 15.4932 23.3891 15.4932C22.1763 15.4932 21.19 14.507 21.19 13.2942ZM23.3891 17.6923C25.0098 17.6923 26.4128 18.583 27.1759 19.8914H19.6033C20.3653 18.583 21.7683 17.6923 23.3891 17.6923ZM18.9909 22.0905H27.7872V24.2896H18.9909V22.0905ZM14.5927 6.69689H32.1854V24.2896H29.9863V22.0905C29.9863 19.6055 28.6053 17.4394 26.57 16.3146C27.3199 15.5251 27.7872 14.4652 27.7872 13.2942C27.7872 10.8686 25.8147 8.89598 23.3891 8.89598C20.9635 8.89598 18.9909 10.8686 18.9909 13.2942C18.9909 14.4652 19.4582 15.5251 20.2081 16.3146C18.1728 17.4394 16.7918 19.6055 16.7918 22.0905V24.2896H14.5927V6.69689Z" fill="url(#paint0_linear_1_2930)"/>
<path d="M6.89594 52.8778H38.7827V55.0769H6.89594V52.8778Z" fill="url(#paint1_linear_1_2930)"/>
<path d="M4.69681 57.2758H40.9818V59.4748H4.69681V57.2758Z" fill="url(#paint2_linear_1_2930)"/>
<path d="M64.0722 34.1855C64.0722 33.7688 63.8369 33.3883 63.4641 33.2014L50.8777 26.9087V5.59733C50.8777 4.99038 50.3862 4.49779 49.7781 4.49779H46.4795V1.19915C46.4795 0.592205 45.988 0.0996094 45.3799 0.0996094H1.39816C0.790111 0.0996094 0.298615 0.592205 0.298615 1.19915V62.7736C0.298615 63.3817 0.790111 63.8732 1.39816 63.8732H4.69679V67.1718C4.69679 67.7799 5.18829 68.2714 5.79634 68.2714H49.7781C50.3862 68.2714 50.8777 67.7799 50.8777 67.1718V58.9593C59.1396 53.4 64.0722 44.1507 64.0722 34.1855ZM48.6786 6.69688V26.9087L46.4795 28.0082V6.69688H48.6786ZM2.4977 2.2987H44.2804V29.1078L42.0813 30.2073V29.7873C42.0813 29.1804 41.5898 28.6878 40.9818 28.6878H5.79634C5.18829 28.6878 4.69679 29.1804 4.69679 29.7873V45.1809C4.69679 45.789 5.18829 46.2805 5.79634 46.2805H38.0449C38.3758 47.0282 38.7343 47.7627 39.1246 48.4796H4.69679V50.6787H40.4595C41.5678 52.3511 42.8422 53.9168 44.2804 55.3462V61.6741H2.4977V2.2987ZM37.1795 44.0814H6.89588V30.8869H39.8822V31.3069L36.0921 33.2025C35.7193 33.3883 35.484 33.7688 35.484 34.1855C35.484 37.6106 36.0789 40.9455 37.1795 44.0814ZM6.89588 66.0723V63.8732H45.3799C45.988 63.8732 46.4795 63.3817 46.4795 62.7736V57.3155C47.1854 57.8906 47.9144 58.4436 48.6786 58.9582V66.0723H6.89588ZM49.7781 57.0527C42.3859 52.0212 37.9074 43.7834 37.6919 34.8606L49.7781 28.8175L61.8643 34.8606C61.6488 43.7834 57.1704 52.0212 49.7781 57.0527Z" fill="url(#paint3_linear_1_2930)"/>
<path d="M49.7781 34.1854C45.535 34.1854 42.0813 37.6391 42.0813 41.8822C42.0813 46.1254 45.535 49.579 49.7781 49.579C54.0213 49.579 57.475 46.1254 57.475 41.8822C57.475 37.6391 54.0213 34.1854 49.7781 34.1854ZM49.7781 47.38C46.7467 47.38 44.2804 44.9137 44.2804 41.8822C44.2804 38.8508 46.7467 36.3845 49.7781 36.3845C52.8096 36.3845 55.2759 38.8508 55.2759 41.8822C55.2759 44.9137 52.8096 47.38 49.7781 47.38Z" fill="url(#paint4_linear_1_2930)"/>
<path d="M47.4759 42.0196L47 42.4955L49.0196 44.5151C49.0827 44.5782 49.1683 44.6137 49.2576 44.6137C49.3468 44.6137 49.4324 44.5782 49.4955 44.5151L53.5347 40.4759L53.0587 40L49.2576 43.8012L47.4759 42.0196Z" fill="url(#paint5_radial_1_2930)"/>
<defs>
<linearGradient id="paint0_linear_1_2930" x1="23.3891" y1="4.4978" x2="23.3891" y2="26.4887" gradientUnits="userSpaceOnUse">
<stop stop-color="#0085FF"/>
<stop offset="1" stop-color="#002763"/>
</linearGradient>
<linearGradient id="paint1_linear_1_2930" x1="22.8393" y1="52.8778" x2="22.8393" y2="55.0769" gradientUnits="userSpaceOnUse">
<stop stop-color="#0085FF"/>
<stop offset="1" stop-color="#002763"/>
</linearGradient>
<linearGradient id="paint2_linear_1_2930" x1="22.8393" y1="57.2758" x2="22.8393" y2="59.4748" gradientUnits="userSpaceOnUse">
<stop stop-color="#0085FF"/>
<stop offset="1" stop-color="#002763"/>
</linearGradient>
<linearGradient id="paint3_linear_1_2930" x1="32.1854" y1="0.0996094" x2="32.1854" y2="68.2714" gradientUnits="userSpaceOnUse">
<stop stop-color="#0085FF"/>
<stop offset="1" stop-color="#002763"/>
</linearGradient>
<linearGradient id="paint4_linear_1_2930" x1="49.7781" y1="34.1854" x2="49.7781" y2="49.579" gradientUnits="userSpaceOnUse">
<stop stop-color="#0085FF"/>
<stop offset="1" stop-color="#002763"/>
</linearGradient>
<radialGradient id="paint5_radial_1_2930" cx="0" cy="0" r="1" gradientUnits="userSpaceOnUse" gradientTransform="translate(46.7324 39.108) rotate(37.0424) scale(9.04457 8.7172)">
<stop offset="0.283668" stop-color="#238FF2"/>
<stop offset="0.718532" stop-color="#0F2AB9"/>
</radialGradient>
</defs>
</svg>
